#N canvas 150 327 450 300 10;
#X obj 218 128 prepend list \$1;
#X obj 224 104 gate;
#X obj 198 30 r saveactive;
#X obj 219 153 s savesend;
#X obj 196 54 t f f;
#X obj 157 80 edge;
#X obj 345 118 s oscsend;
#X obj 336 79 prepend send /\$1;
#X obj 267 53 r \$1;
#X obj 139 141 s \$1-in;
#X obj 144 110 f;
#X obj 71 47 r resend;
#X obj 103 84 t b;
#X connect 0 0 3 0;
#X connect 1 0 0 0;
#X connect 2 0 4 0;
#X connect 4 0 5 0;
#X connect 4 1 1 0;
#X connect 5 0 10 0;
#X connect 7 0 6 0;
#X connect 8 0 1 1;
#X connect 8 0 7 0;
#X connect 8 0 10 1;
#X connect 10 0 9 0;
#X connect 11 0 12 0;
#X connect 12 0 10 0;
