#N canvas 2 64 1249 481 10;
#N canvas 120 291 627 369 sendOsc 0;
#X obj 303 83 sendOSC;
#X msg 264 106 disconnect;
#X obj 260 17 loadbang;
#X obj 261 37 del 1000;
#X obj 302 62 r oscsend;
#X obj 179 104 bng 15 250 50 0 empty empty disconnect 17 7 0 10 -262144
-1 -1;
#X msg 266 125 connect localhost 12345;
#X obj 103 121 bng 15 250 50 0 empty empty localhost/12345 17 7 0 10
-262144 -1 -1;
#X msg 266 144 connect 200.200.0.1 12345;
#X obj 104 140 bng 15 250 50 0 empty empty 200.200.0.1/12345 17 7 0
10 -262144 -1 -1;
#X connect 1 0 0 0;
#X connect 2 0 3 0;
#X connect 3 0 6 0;
#X connect 4 0 0 0;
#X connect 5 0 1 0;
#X connect 6 0 0 0;
#X connect 7 0 6 0;
#X connect 8 0 0 0;
#X connect 9 0 8 0;
#X coords 0 -1 1 1 158 60 1 100 100;
#X restore 11 86 pd sendOsc;
#N canvas 93 115 1154 526 ctlbank 0;
#X obj -67 74 ctl mousespring;
#X obj -60 36 ctl zmouse;
#X obj 100 24 ctl origin;
#X obj 104 86 ctl gravity;
#X obj 105 146 ctl fr;
#X obj 107 185 ctl minv;
#X obj 107 210 ctl maxv;
#X obj -63 108 ctl rmspring;
#X obj -64 135 ctl kmspring;
#X obj -64 160 ctl zmspring;
#X obj -58 233 ctl mouserotation;
#X obj -58 253 ctl rmrotation;
#X obj -59 273 ctl smrotation;
#X obj -57 303 ctl mousepick;
#X obj -54 333 ctl rmpick;
#X obj -55 356 ctl kmpick;
#X obj -53 377 ctl zmpick;
#X obj -53 399 ctl mousegravity;
#X obj -51 420 ctl mmgravity;
#X obj -52 464 ctl minmgravity;
#X obj -50 444 ctl rinmgravity;
#X obj -52 485 ctl lorenz;
#X obj -51 507 ctl lorenzatt;
#X obj 107 236 ctl yspring;
#X obj 108 264 ctl yori;
#X obj 110 287 ctl kyspring;
#X obj 108 316 ctl zyspring;
#X obj 110 339 ctl border;
#X obj 110 361 ctl rborder;
#X obj 111 421 ctl kborder;
#X obj 115 440 ctl zborder;
#X obj 744 120 ctl mingrad;
#X obj 746 97 ctl maxgrad;
#X obj 744 142 ctl alphablur;
#X obj 746 165 ctl rback;
#X obj 746 204 ctl gback;
#X obj 746 184 ctl bback;
#X obj 116 499 ctl zneth;
#X obj 117 475 ctl neth;
#X obj 121 526 ctl kneth;
#X obj 124 552 ctl lneth;
#X obj 196 478 ctl netw;
#X obj 195 502 ctl znetw;
#X obj 200 529 ctl knetw;
#X obj 203 555 ctl lnetw;
#X obj 243 129 ctl xspring;
#X obj 244 151 ctl xori;
#X obj 245 173 ctl kxspring;
#X obj 244 195 ctl zxspring;
#X obj 243 45 ctl zspring;
#X obj 242 86 ctl kzspring;
#X obj 242 107 ctl zzspring;
#X obj 102 45 ctl korigin;
#X obj 103 66 ctl zorigin;
#X obj -63 181 ctl knmspring;
#X obj -63 200 ctl nkmspring;
#X obj 748 308 ctl camrotx;
#X obj 748 330 ctl camroty;
#X obj 748 352 ctl camrotz;
#X obj 748 372 ctl camdist;
#X obj 109 403 ctl zminborder;
#X obj 109 383 ctl zmaxborder;
#X obj 364 -43 ctl blobforce;
#X obj 747 225 ctl rpart;
#X obj 747 248 ctl bpart;
#X obj 746 269 ctl gpart;
#X obj 361 4 ctl blobz;
#X obj 364 24 ctl bloboutvel;
#X obj 362 -21 ctl blobin;
#X obj 362 48 ctl blobblur;
#X obj 100 6 ctl forceorigin;
#X obj 746 287 ctl gradienttype;
#X obj 509 -93 ctl emitpart;
#X obj 509 -71 ctl emitangle;
#X obj 509 -49 ctl emitvel;
#X obj 509 -27 ctl emitrate;
#X obj 509 -5 ctl emitlocx;
#X obj 509 17 ctl emitlocy;
#X obj 509 62 ctl emitautostop;
#X obj 509 84 ctl emitcircle;
#X obj 509 40 ctl emitlocz;
#N canvas 0 22 561 321 gradname 0;
#X obj 234 114 gate;
#X obj 208 40 r saveactive;
#X obj 229 189 s savesend;
#X obj 167 90 edge;
#X obj 355 128 s oscsend;
#X obj 81 57 r resend;
#X obj 113 94 t b;
#X obj 154 120 symbol;
#X obj 206 64 t f f;
#X obj 76 162 s gradname-in;
#X obj 277 63 r gradname;
#X obj 346 89 prepend send /gradname;
#X obj 254 92 list trim;
#X obj 228 164 prepend list gradname symbol;
#X connect 0 0 13 0;
#X connect 1 0 8 0;
#X connect 3 0 7 0;
#X connect 5 0 6 0;
#X connect 6 0 7 0;
#X connect 7 0 9 0;
#X connect 8 0 3 0;
#X connect 8 1 0 0;
#X connect 10 0 7 1;
#X connect 10 0 11 0;
#X connect 10 0 12 0;
#X connect 11 0 4 0;
#X connect 12 0 0 1;
#X connect 13 0 2 0;
#X restore 742 72 pd gradname;
#X obj 755 396 ctl partsize;
#X obj 106 165 ctl frmin;
#X obj 243 65 ctl zori;
#X obj 371 662 ctl split;
#N canvas 0 22 450 300 gradname2 0;
#X obj 244 124 gate;
#X obj 218 50 r saveactive;
#X obj 239 196 s savesend;
#X obj 177 100 edge;
#X obj 365 138 s oscsend;
#X obj 91 67 r resend;
#X obj 123 104 t b;
#X obj 164 130 symbol;
#X obj 216 74 t f f;
#X obj 264 102 list trim;
#X obj 287 73 r gradname2;
#X obj 356 98 prepend send /gradname2;
#X obj 86 172 s gradname2-in;
#X obj 238 170 prepend list gradname2 symbol;
#X connect 0 0 13 0;
#X connect 1 0 8 0;
#X connect 3 0 7 0;
#X connect 5 0 6 0;
#X connect 6 0 7 0;
#X connect 7 0 12 0;
#X connect 8 0 3 0;
#X connect 8 1 0 0;
#X connect 9 0 0 1;
#X connect 10 0 7 1;
#X connect 10 0 9 0;
#X connect 10 0 11 0;
#X connect 11 0 4 0;
#X connect 13 0 2 0;
#X restore 824 70 pd gradname2;
#N canvas 0 22 178 132 reset 0;
#X obj -330 78 s oscsend;
#X obj -334 16 r reset;
#X obj -331 45 prepend send /reset;
#X connect 1 0 2 0;
#X connect 2 0 0 0;
#X restore 744 448 pd reset;
#X obj 826 97 ctl maxgrad2;
#X obj 824 120 ctl mingrad2;
#X obj 98 -16 ctl origintype;
#X obj 681 103 ctl camin;
#N canvas 0 22 561 321 photoname 0;
#X obj 234 114 gate;
#X obj 208 40 r saveactive;
#X obj 229 177 s savesend;
#X obj 167 90 edge;
#X obj 355 128 s oscsend;
#X obj 81 57 r resend;
#X obj 113 94 t b;
#X obj 154 120 symbol;
#X obj 206 64 t f f;
#X obj 254 92 list trim;
#X obj 277 63 r photoname;
#X obj 346 89 prepend send /photoname;
#X obj 76 162 s photoname-in;
#X obj 228 152 prepend list photoname symbol;
#X connect 0 0 13 0;
#X connect 1 0 8 0;
#X connect 3 0 7 0;
#X connect 5 0 6 0;
#X connect 6 0 7 0;
#X connect 7 0 12 0;
#X connect 8 0 3 0;
#X connect 8 1 0 0;
#X connect 9 0 0 1;
#X connect 10 0 7 1;
#X connect 10 0 9 0;
#X connect 10 0 11 0;
#X connect 11 0 4 0;
#X connect 13 0 2 0;
#X restore 661 76 pd photoname;
#X obj 745 418 ctl splitgrad;
#X obj 246 218 ctl planforce;
#X obj 247 246 ctl dplanforce;
#X obj 244 279 ctl kplanforce;
#X obj 250 310 ctl zplanforce;
#X obj 247 342 ctl planx;
#X obj 248 376 ctl plany;
#X obj 252 408 ctl planz;
#X obj -52 533 ctl mousepicker;
#X obj -49 563 ctl rmpicker;
#X obj -50 586 ctl kmpicker;
#X obj -48 607 ctl zmpicker;
#X obj -51 627 ctl mousedamp;
#X obj -48 657 ctl rmdamp;
#X obj -49 680 ctl dmdamp;
#X obj 833 144 ctl finalblur;
#X obj 752 474 ctl random;
#X obj 364 163 ctl attrspring0;
#X obj 364 185 ctl raspring0;
#X obj 365 208 ctl kaspring0;
#X obj 365 233 ctl zaspring0;
#X obj 364 258 ctl attrrotation0;
#X obj 364 278 ctl rarotation0;
#X obj 363 298 ctl sarotation0;
#X obj 363 322 ctl attrgravity0;
#X obj 365 343 ctl magravity0;
#X obj 366 367 ctl rinagravity0;
#X obj 364 387 ctl minagravity0;
#X obj 366 415 ctl attrdamp0;
#X obj 366 435 ctl radamp0;
#X obj 365 455 ctl cadamp0;
#X obj 471 163 ctl attrspring1;
#X obj 471 184 ctl raspring1;
#X obj 472 207 ctl kaspring1;
#X obj 472 232 ctl zaspring1;
#X obj 471 257 ctl attrrotation1;
#X obj 471 277 ctl rarotation1;
#X obj 470 297 ctl sarotation1;
#X obj 470 321 ctl attrgravity1;
#X obj 472 342 ctl magravity1;
#X obj 473 366 ctl rinagravity1;
#X obj 471 386 ctl minagravity1;
#X obj 473 414 ctl attrdamp1;
#X obj 473 434 ctl radamp1;
#X obj 472 454 ctl cadamp1;
#X obj 586 161 ctl attrspring2;
#X obj 586 183 ctl raspring2;
#X obj 587 206 ctl kaspring2;
#X obj 587 231 ctl zaspring2;
#X obj 586 256 ctl attrrotation2;
#X obj 586 276 ctl rarotation2;
#X obj 585 296 ctl sarotation2;
#X obj 585 320 ctl attrgravity2;
#X obj 587 341 ctl magravity2;
#X obj 588 365 ctl rinagravity2;
#X obj 586 385 ctl minagravity2;
#X obj 588 413 ctl attrdamp2;
#X obj 588 433 ctl radamp2;
#X obj 587 453 ctl cadamp2;
#X obj 371 637 ctl camctlnum;
#X obj 362 73 ctl blobxinvert;
#X obj 366 95 ctl blobyinvert;
#X obj 365 116 ctl blobmirrorx;
#X obj 364 139 ctl blobmirrory;
#X obj 354 496 ctl attrmirrorx0;
#X obj 356 516 ctl attrmirrory0;
#X obj 587 486 ctl attrrotate;
#N canvas 197 254 1017 306 visu 0;
#X obj 78 30 ctl beat;
#X obj 93 144 ctl batonsize;
#X obj 87 234 ctl batonthickness;
#X obj 88 263 ctl batonalpha;
#X obj 94 293 ctl camwigglex;
#X obj 98 315 ctl camwiggley;
#X obj 288 91 ctl squaremode;
#X obj 289 149 ctl starmode;
#X obj 88 83 ctl isBaton;
#X obj 289 69 ctl isSquare;
#X obj 292 127 ctl isStar;
#X obj 288 169 ctl audioenv;
#X obj 284 237 ctl camwiggledamp;
#X obj 286 260 ctl camwigglefreq;
#X obj 287 279 ctl camwiggleamp;
#X obj 285 297 ctl camwigglephase;
#X obj 287 217 ctl camwigglezoomdamp;
#X obj 289 195 ctl camwigglezoomamp;
#X obj 447 55 ctl isPooler;
#X obj 449 86 ctl poolbounce;
#X obj 451 117 ctl poolthickness;
#X obj 449 145 ctl pooldownsample;
#X obj 451 173 ctl poolres;
#X obj 455 197 ctl poolamp;
#X obj 450 224 ctl poolmode;
#X obj 87 208 ctl batonvelocityz;
#X obj 85 187 ctl batonvelocityy;
#X obj 85 166 ctl batonvelocityx;
#X obj 87 115 ctl batonmode;
#X obj 175 30 ctl visufollowcam;
#X obj 588 54 ctl isnoisec;
#X obj 602 86 ctl noisecnoise;
#X obj 612 125 ctl noisecrmax;
#X obj 608 161 ctl noisecnumc;
#X obj 741 67 ctl isRuban;
#X obj 755 102 ctl rubangravity;
#X obj 872 152 ctl isspider;
#X obj 870 183 ctl spidervel;
#X obj 877 222 ctl spidernum;
#X obj 764 236 ctl isplanet;
#X obj 760 268 ctl planetisbeat;
#X obj 754 202 ctl planetalpha;
#X restore 851 14 pd visu;
#X obj 835 310 ctl alphacam;
#N canvas 0 22 450 300 nosc 0;
#X obj 86 36 ctlnosc sendbeat;
#X obj 94 61 ctlnosc audiosendenv;
#X restore 695 5 pd nosc;
#X obj 846 396 ctl alphaparticle;
#X obj 352 538 ctl attrmirrorx1;
#X obj 353 557 ctl attrmirrory1;
#X obj 352 575 ctl attrmirrorx2;
#X obj 353 594 ctl attrmirrory2;
#X obj 105 110 ctl Gx;
#X obj 147 109 ctl Gy;
#X obj 189 109 ctl Gz;
#X obj 121 578 ctl netshot;
#X obj 824 557 ctl isAttractors;
#X restore 1044 -27 pd ctlbank;
#X obj 42 -28 bng 25 250 50 0 resend resend-in resend_values 0 -7 0
10 -260097 -1 -1;
#N canvas 303 228 977 431 colors 1;
#X floatatom -120 -12 5 0 0 3 rback - rback;
#X floatatom -84 -10 5 0 0 3 gback - gback;
#X floatatom -46 -10 5 0 0 3 bback - bback;
#X obj -156 -68 pdp_colorgrid colorgrid1 256 0 256 50 0 50 0 1 1 10
10 -177 -104;
#X floatatom 127 -8 5 0 0 0 max maxgrad-in maxgrad;
#X floatatom 127 -28 5 0 0 0 min mingrad-in mingrad;
#X floatatom -210 -71 5 0 0 3 alphablur alphablur-in alphablur;
#X obj -556 53 r rback-in;
#X obj -430 50 r gback-in;
#X obj -307 48 r bback-in;
#X obj -307 27 i;
#X obj -432 31 i;
#X obj -556 32 i;
#X text -201 -89 background;
#X floatatom -152 100 5 0 0 3 r - rpart;
#X floatatom -112 99 5 0 0 3 g - gpart;
#X floatatom -66 102 5 0 0 3 b - bpart;
#X obj -217 146 pdp_colorgrid colorgrid1 256 0 256 50 0 50 0 1 1 10
10 -215 199;
#X obj -346 211 i;
#X obj -471 215 i;
#X obj -595 216 i;
#X obj -595 237 r rpart-in;
#X obj -469 234 r gpart-in;
#X obj -346 232 r bpart-in;
#X text -428 205 comment;
#X text -210 23 particles;
#X text 165 -45 gradient;
#X obj 119 40 vradio 15 1 0 4 gradienttype gradienttype-in type 0 -8
0 10 -262144 -1 -1 0;
#X floatatom -209 50 5 0 0 3 size partsize-in partsize;
#X obj 191 24 tgl 15 0 camin camin-in photos -37 7 0 10 -262144 -1
-1 0 1;
#X obj 58 230 metro 1000;
#X floatatom 43 114 5 0 0 3 f - -;
#X obj 67 296 tgl 15 0 empty empty empty 17 7 0 10 -262144 -1 -1 0
1;
#X obj 61 318 sel 0 1;
#X obj -20 103 tgl 15 0 empty empty strob 0 22 0 10 -262144 -1 -1 0
1;
#X msg 141 186 250;
#X msg 107 185 500;
#X msg 171 188 100;
#X msg 58 387 \; rback-in \$1 \; gback-in \$2 \; bback-in \$3;
#X msg 212 191 50;
#X msg 97 339 list 255 255 255;
#X msg 258 189 10;
#X obj 153 266 random 100;
#X obj 115 277 > 50;
#X msg 18 340 list 0 0 0;
#X msg -59 218 1;
#X obj -59 197 loadbang;
#X obj 41 250 gate 2;
#X floatatom -218 -38 5 0 0 3 finalblur finalblur-in finalblur;
#X floatatom -160 -11 5 0 0 3 grey - -;
#X floatatom -213 83 5 0 0 3 alpha alphaparticle-in alphaparticle;
#X obj 10 110 vradio 15 1 0 2 empty empty type 0 -8 0 10 -262144 -1
-1 0;
#X obj 27 148 + 1;
#X obj 408 154 popup 124 25 #ffffff popup portugal polymaroon BW magenta
lagoon fire rasta Burnigsmoke Bhorizon Gflash GOneon Oflash Ycontrast
;
#X obj 399 201 route bang;
#X obj 519 183 s gradname;
#X obj 506 116 r gradname-in;
#X msg 414 240 options portugal polymaroon BW magenta lagoon fire rasta
Burnigsmoke Bhorizon Gflash GOneon Oflash Ycontrast;
#X obj 361 379 popup 124 25 #ffffff popup yellowreflects walk sphere
lamps thunder sunset mountains psywater psywater2 psywater3 psywater4
drummer purplesnow fire locologo herbamix;
#X obj 516 325 route bang;
#X obj 535 280 r photoname-in;
#X obj 527 398 s photoname;
#X msg 528 344 options yellowreflects walk sphere lamps thunder sunset
mountains psywater psywater2 psywater3 psywater4 drummer purplesnow
fire locologo herbamix;
#X connect 3 0 12 0;
#X connect 3 1 11 0;
#X connect 3 2 10 0;
#X connect 7 0 12 0;
#X connect 8 0 11 0;
#X connect 9 0 10 0;
#X connect 10 0 2 0;
#X connect 11 0 1 0;
#X connect 12 0 0 0;
#X connect 17 0 20 0;
#X connect 17 1 19 0;
#X connect 17 2 18 0;
#X connect 18 0 16 0;
#X connect 19 0 15 0;
#X connect 20 0 14 0;
#X connect 21 0 20 0;
#X connect 22 0 19 0;
#X connect 23 0 18 0;
#X connect 30 0 47 1;
#X connect 31 0 30 1;
#X connect 32 0 33 0;
#X connect 33 0 44 0;
#X connect 33 1 40 0;
#X connect 34 0 30 0;
#X connect 35 0 31 0;
#X connect 36 0 31 0;
#X connect 37 0 31 0;
#X connect 39 0 31 0;
#X connect 40 0 38 0;
#X connect 41 0 31 0;
#X connect 42 0 43 0;
#X connect 43 0 32 0;
#X connect 44 0 38 0;
#X connect 45 0 47 0;
#X connect 46 0 45 0;
#X connect 46 0 36 0;
#X connect 47 0 32 0;
#X connect 47 1 42 0;
#X connect 49 0 2 0;
#X connect 49 0 1 0;
#X connect 49 0 0 0;
#X connect 51 0 52 0;
#X connect 52 0 47 0;
#X connect 53 0 54 0;
#X connect 53 1 55 0;
#X connect 54 0 57 0;
#X connect 56 0 53 1;
#X connect 57 0 53 0;
#X connect 58 0 59 0;
#X connect 58 1 61 0;
#X connect 59 0 62 0;
#X connect 60 0 58 1;
#X connect 62 0 58 0;
#X coords 0 0 1 1 85 60 0;
#X restore 327 -28 pd colors;
#N canvas 484 425 759 234 camera 1;
#X obj 83 51 hsl 128 15 0 360 0 0 camrotx camrotx-in rotx -2 -8 0 10
-262144 -1 -1 0 1;
#X obj 84 81 hsl 128 15 -90 90 0 0 camroty camroty-in roty -2 -8 0
10 -262144 -1 -1 6350 1;
#X obj 80 155 hsl 128 15 0 200 0 0 camdist camdist-in distance -2 -8
0 10 -262144 -1 -1 6350 1;
#X obj 10 81 tgl 15 0 empty empty empty 17 7 0 10 -262144 -1 -1 0 1
;
#X obj -169 162 sin;
#X obj -169 139 * 6.28319;
#X obj -185 228 s camroty-in;
#X floatatom 126 139 5 0 0 0 - camdist -;
#X obj -169 178 * 30;
#X floatatom 37 87 5 0 0 0 A - -;
#X floatatom 37 72 5 0 0 0 f - -;
#X obj -48 306 s camrotx-in;
#X floatatom 136 189 5 0 0 0 alpha alphacam-in alphacam;
#X obj -172 85 metro 100;
#X obj 22 259 loadbang;
#X obj -171 104 counter 160;
#X obj -169 119 / 160;
#X obj 83 118 hsl 128 15 0 360 0 0 camrotz camrotz-in rotz -2 -8 0
10 -262144 -1 -1 0 1;
#X msg 28 291 \; camrotx-in 0 \; camroty-in 0 \; camrotz-in 0 \; camdist-in
100 \; alphacam-in 12 \;;
#X obj 18 186 bng 15 250 50 0 empty empty init 17 7 0 10 -262144 -1
-1;
#X obj 13 49 tgl 15 0 empty empty empty 17 7 0 10 -262144 -1 -1 0 1
;
#X obj -370 115 sin;
#X obj -368 99 * 6.28319;
#X obj -368 138 * 30;
#X floatatom 36 55 5 0 0 0 A - -;
#X floatatom 36 40 5 0 0 0 f - -;
#X obj -371 45 metro 100;
#X obj -370 64 counter 160;
#X obj -368 79 / 160;
#X connect 3 0 13 0;
#X connect 4 0 8 0;
#X connect 5 0 4 0;
#X connect 8 0 6 0;
#X connect 9 0 8 1;
#X connect 10 0 15 4;
#X connect 10 0 16 1;
#X connect 13 0 15 0;
#X connect 14 0 18 0;
#X connect 15 0 16 0;
#X connect 16 0 5 0;
#X connect 19 0 18 0;
#X connect 20 0 26 0;
#X connect 21 0 23 0;
#X connect 22 0 21 0;
#X connect 24 0 23 1;
#X connect 25 0 27 4;
#X connect 25 0 28 1;
#X connect 26 0 27 0;
#X connect 27 0 28 0;
#X connect 28 0 22 0;
#X coords 0 -1 1 1 205 200 1 10 10;
#X restore 770 404 pd camera;
#N canvas 142 182 563 349 mouse 0;
#X floatatom 121 67 5 0 0 0 r rmspring-in rmspring;
#X floatatom 169 67 5 0 0 0 k kmspring-in kmspring;
#X floatatom 288 71 5 0 0 0 z zmspring-in zmspring;
#X obj 1 91 tgl 15 0 mouserotation mouserotation-in rotation 17 7 0
10 -262144 -1 -1 0 1;
#X obj 1 115 tgl 15 0 mousepick mousepick-in pick 17 7 0 10 -262144
-1 -1 0 1;
#X floatatom 120 116 5 0 0 0 r rmpick-in rmpick;
#X floatatom 174 116 5 0 0 0 k kmpick-in kmpick;
#X floatatom 225 116 5 0 0 0 z zmpick-in zmpick;
#X floatatom 121 92 5 0 0 0 r rmrotation-in rmrotation;
#X floatatom 175 92 5 0 0 0 s smrotation-in smrotation;
#X floatatom 50 35 5 0 0 0 zmouse zmouse-in zmouse;
#X obj 1 144 tgl 15 0 mousegravity mousegravity-in Gravity 17 7 0 10
-262144 -1 -1 0 1;
#X floatatom 117 142 5 0 0 0 mass mmgravity-in mmgravity;
#X floatatom 175 145 5 0 0 0 rin rinmgravity-in rinmgravity;
#X floatatom 230 146 5 0 0 0 min minmgravity-in minmgravity;
#X obj 2 174 tgl 15 0 lorenz lorenz-in lorenz 17 7 0 10 -262144 -1
-1 0 1;
#X floatatom 119 173 5 0 0 0 att lorenzatt-in lorenzatt;
#X floatatom 223 68 5 0 0 0 kn knmspring-in knmspring;
#X floatatom 245 48 5 0 0 0 n nkmspring-in nkmspring;
#X obj 9 66 hradio 15 1 0 3 mousespring mousespring-in spring 0 -8
0 10 -262144 -1 -1 0;
#X floatatom 108 228 5 0 0 0 n rmpicker-in rmpicker;
#X floatatom 158 229 5 0 0 0 k kmpicker-in kmpicker;
#X obj 2 230 hradio 15 1 0 4 mousepicker mousepicker-in picker 0 -8
0 10 -262144 -1 -1 0;
#X floatatom 214 229 5 0 0 0 z zmpicker-in zmpicker;
#X floatatom 105 271 5 0 0 0 r rmdamp-in rmdamp;
#X floatatom 194 267 5 0 0 0 dampf dmdamp-in dmdamp;
#X obj 5 266 hradio 15 1 0 3 mousedamp mousedamp-in Damp 0 -8 0 10
-262144 -1 -1 0;
#X obj 359 289 sin;
#X obj 340 231 counter;
#X floatatom 492 199 5 0 0 0 - - -;
#X obj 348 269 * 6.283;
#X obj 403 155 tgl 15 0 empty empty empty 17 7 0 10 -262144 -1 -1 0
1;
#X obj 360 311 * 500;
#X obj 346 253 / 1;
#X obj 377 326 s zmouse-in;
#X obj 479 234 / 0.3;
#X obj 389 188 metro 100;
#X connect 27 0 32 0;
#X connect 28 0 33 0;
#X connect 29 0 35 0;
#X connect 30 0 27 0;
#X connect 31 0 36 0;
#X connect 32 0 34 0;
#X connect 33 0 30 0;
#X connect 35 0 28 4;
#X connect 35 0 33 1;
#X connect 36 0 28 0;
#X restore 401 -29 pd mouse;
#N canvas 789 144 450 300 emitters 0;
#X obj 21 103 tgl 15 0 emitpart emitpart-in GO 17 7 0 10 -262144 -1
-1 0 1;
#X floatatom 110 100 5 0 0 0 vel emitvel-in emitvel;
#X floatatom 107 128 5 0 0 0 rate emitrate-in emitrate;
#X floatatom 187 99 5 0 0 0 angle emitangle-in emitangle;
#X obj 73 52 tgl 15 0 emitautostop emitautostop-in auto_stop 17 7 0
10 -262144 -1 -1 0 1;
#X obj 167 129 tgl 15 0 emitcircle emitcircle-in circle 17 7 0 10 -262144
-1 -1 0 1;
#X floatatom 259 121 5 0 0 0 y emitlocy-in emitlocy;
#X floatatom 258 95 5 0 0 0 x emitlocx-in emitlocx;
#X floatatom 260 145 5 0 0 0 z emitlocz-in emitlocz;
#X restore 714 -30 pd emitters;
#N canvas 139 129 1141 238 points 0;
#X floatatom 134 35 5 0 0 0 r raspring0-in raspring0;
#X floatatom 181 38 5 0 0 0 k kaspring0-in kaspring0;
#X obj 14 59 tgl 15 0 attrrotation0 attrrotation0-in rotation 17 7
0 10 -262144 -1 -1 0 1;
#X floatatom 134 60 5 0 0 0 r rarotation0-in rarotation0;
#X floatatom 188 60 5 0 0 0 s sarotation0-in sarotation0;
#X obj 16 86 tgl 15 0 attrgravity0 attrgravity0-in Gravity 17 7 0 10
-262144 -1 -1 0 1;
#X floatatom 132 84 5 0 0 0 mass magravity0-in magravity0;
#X floatatom 190 87 5 0 0 0 rin rinagravity0-in rinagravity0;
#X floatatom 245 88 5 0 0 0 min minagravity0-in minagravity0;
#X floatatom 251 35 5 0 0 0 z zaspring0-in zaspring0;
#X obj 12 31 hradio 15 1 0 3 attrspring0 attrspring0-in spring 0 -8
0 10 -262144 -1 -1 0;
#X obj 15 117 tgl 15 0 attrdamp0 attrdamp0-in damp 17 7 0 10 -262144
-1 -1 0 1;
#X floatatom 135 118 5 0 0 0 r radamp0-in radamp0;
#X floatatom 206 118 5 0 0 0 coef cadamp0-in cadamp0;
#X floatatom 439 28 5 0 0 0 r raspring1-in raspring1;
#X floatatom 486 31 5 0 0 0 k kaspring1-in kaspring1;
#X obj 319 52 tgl 15 0 attrrotation1 attrrotation1-in rotation 17 7
0 10 -262144 -1 -1 0 1;
#X floatatom 439 53 5 0 0 0 r rarotation1-in rarotation1;
#X floatatom 493 53 5 0 0 0 s sarotation1-in sarotation1;
#X obj 321 79 tgl 15 0 attrgravity1 attrgravity1-in Gravity 17 7 0
10 -262144 -1 -1 0 1;
#X floatatom 437 77 5 0 0 0 mass magravity1-in magravity1;
#X floatatom 495 80 5 0 0 0 rin rinagravity1-in rinagravity1;
#X floatatom 550 81 5 0 0 0 min minagravity1-in minagravity1;
#X floatatom 556 28 5 0 0 0 z zaspring1-in zaspring1;
#X obj 317 24 hradio 15 1 0 3 attrspring1 attrspring1-in spring 0 -8
0 10 -262144 -1 -1 0;
#X obj 320 110 tgl 15 0 attrdamp1 attrdamp1-in damp 17 7 0 10 -262144
-1 -1 0 1;
#X floatatom 440 111 5 0 0 0 r radamp1-in radamp1;
#X floatatom 511 111 5 0 0 0 coef cadamp1-in cadamp1;
#X floatatom 801 27 5 0 0 0 r raspring2-in raspring2;
#X floatatom 848 30 5 0 0 0 k kaspring2-in kaspring2;
#X obj 681 51 tgl 15 0 attrrotation2 attrrotation2-in rotation 17 7
0 10 -262144 -1 -1 0 1;
#X floatatom 801 52 5 0 0 0 r rarotation2-in rarotation2;
#X floatatom 855 52 5 0 0 0 s sarotation2-in sarotation2;
#X obj 683 78 tgl 15 0 attrgravity2 attrgravity2-in Gravity 17 7 0
10 -262144 -1 -1 0 1;
#X floatatom 799 76 5 0 0 0 mass magravity2-in magravity2;
#X floatatom 857 79 5 0 0 0 rin rinagravity2-in rinagravity2;
#X floatatom 912 80 5 0 0 0 min minagravity2-in minagravity2;
#X floatatom 918 27 5 0 0 0 z zaspring2-in zaspring2;
#X obj 679 23 hradio 15 1 0 3 attrspring2 attrspring2-in spring 0 -8
0 10 -262144 -1 -1 0;
#X obj 682 109 tgl 15 0 attrdamp2 attrdamp2-in damp 17 7 0 10 -262144
-1 -1 0 1;
#X floatatom 802 110 5 0 0 0 r radamp2-in radamp2;
#X floatatom 873 110 5 0 0 0 coef cadamp2-in cadamp2;
#X obj 442 204 hradio 15 1 0 4 camctlnum camctlnum-in camctl 0 -8 0
10 -262144 -1 -1 0;
#X obj 29 187 tgl 15 0 attrmirrorx0 attrmirrorx0-in mirrorx 17 7 0
10 -262144 -1 -1 0 1;
#X obj 29 209 tgl 15 0 attrmirrory0 attrmirrory0-in mirrory 17 7 0
10 -262144 -1 -1 0 1;
#X floatatom 119 151 5 0 0 0 n rmpicker-in rmpicker;
#X floatatom 169 152 5 0 0 0 k kmpicker-in kmpicker;
#X obj 13 153 hradio 15 1 0 4 mousepicker mousepicker-in picker 0 -8
0 10 -262144 -1 -1 0;
#X floatatom 225 152 5 0 0 0 z zmpicker-in zmpicker;
#X floatatom 430 144 5 0 0 0 n rmpicker-in rmpicker;
#X floatatom 480 145 5 0 0 0 k kmpicker-in kmpicker;
#X obj 324 146 hradio 15 1 0 4 mousepicker mousepicker-in picker 0
-8 0 10 -262144 -1 -1 0;
#X floatatom 536 145 5 0 0 0 z zmpicker-in zmpicker;
#X floatatom 788 141 5 0 0 0 n rmpicker-in rmpicker;
#X floatatom 838 142 5 0 0 0 k kmpicker-in kmpicker;
#X obj 682 143 hradio 15 1 0 4 mousepicker mousepicker-in picker 0
-8 0 10 -262144 -1 -1 0;
#X floatatom 894 142 5 0 0 0 z zmpicker-in zmpicker;
#X floatatom 601 209 5 0 0 0 attr_rotate attrrotate-in attrrotate;
#X obj 319 184 tgl 15 0 attrmirrorx1 attrmirrorx1-in mirrorx 17 7 0
10 -262144 -1 -1 0 1;
#X obj 316 209 tgl 15 0 attrmirrory1 attrmirrory1-in mirrory 17 7 0
10 -262144 -1 -1 0 1;
#X obj 707 177 tgl 15 0 attrmirrorx2 attrmirrorx2-in mirrorx 17 7 0
10 -262144 -1 -1 0 1;
#X obj 710 202 tgl 15 0 attrmirrory2 attrmirrory2-in mirrory 17 7 0
10 -262144 -1 -1 0 1;
#X obj 999 25 tgl 25 0 isAttractors isAttractors-in activate_all 17
7 0 10 -4034 -1 -1 0 1;
#X restore 548 -29 pd points;
#N canvas 614 229 631 474 planforces 0;
#X obj 32 163 tgl 15 0 yspring yspring-in yspring 17 7 0 10 -262144
-1 -1 0 1;
#X floatatom 185 164 5 0 0 0 k kyspring-in kyspring;
#X floatatom 240 166 5 0 0 0 z zyspring-in zyspring;
#X floatatom 120 163 5 0 0 0 y yori-in yori;
#X obj 33 140 tgl 15 0 xspring xspring-in xspring 17 7 0 10 -262144
-1 -1 0 1;
#X floatatom 188 141 5 0 0 0 k kxspring-in kxspring;
#X floatatom 243 143 5 0 0 0 z zxspring-in zxspring;
#X floatatom 123 140 5 0 0 0 x xori-in xori;
#X obj 34 186 tgl 15 0 zspring zspring-in zspring 17 7 0 10 -262144
-1 -1 0 1;
#X floatatom 187 187 5 0 0 0 k kzspring-in kzspring;
#X floatatom 242 189 5 0 0 0 z zzspring-in zzspring;
#X floatatom 122 186 5 0 0 0 z zori-in zori;
#X floatatom 59 87 5 0 0 0 y plany-in plany;
#X floatatom 62 61 5 0 0 0 x planx-in planx;
#X floatatom 61 110 5 0 0 0 z planz-in planz;
#X floatatom 130 64 5 0 0 0 d dplanforce-in dplanforce;
#X floatatom 186 65 5 0 0 0 k kplanforce-in kplanforce;
#X obj 22 44 tgl 15 0 planforce planforce planforce 17 7 0 10 -262144
-1 -1 0 1;
#X floatatom 241 66 5 0 0 0 z zplanforce-in zplanforce;
#X coords 0 -1 1 1 305 200 1 10 10;
#X restore 445 411 pd planforces;
#N canvas 0 22 450 300 blob 0;
#X obj 62 57 tgl 15 0 blobxinvert blobxinvert-in invertx 17 7 0 10
-262144 -1 -1 0 1;
#X obj 60 76 tgl 15 0 blobyinvert blobyinvert-in inverty 17 7 0 10
-262144 -1 -1 0 1;
#X obj 59 130 tgl 15 0 blobmirrorx blobmirrorx-in mirrorx 17 7 0 10
-262144 -1 -1 0 1;
#X obj 57 149 tgl 15 0 blobmirrory blobmirrory-in mirrory 17 7 0 10
-262144 -1 -1 0 1;
#X restore 792 -31 pd blob;
#N canvas 0 22 754 403 touchosc 0;
#X symbolatom 325 96 10 0 0 0 - - -;
#X obj 242 95 list split 1;
#X obj 80 186 print r;
#X obj 221 194 unpack 0 0;
#X obj 229 231 expr 180.0*($f1-0.5);
#X obj 170 212 expr 180*($f1-0.5);
#X obj 167 232 s camrotx;
#X obj 226 249 s camroty;
#X obj 303 194 s origin-in;
#X obj 428 250 f;
#X obj 463 208 r maxv;
#X obj 439 230 gate;
#X obj 389 181 edge;
#X obj 397 208 t b b b b;
#X obj 423 230 tgl 15 0 empty empty empty 17 7 0 10 -262144 -1 -1 0
1;
#X obj 404 274 s maxv-in;
#X msg 397 258 0;
#X obj 555 256 s attrgravity0-in;
#X obj 560 188 s resend-in;
#X obj 213 154 route /4/xy /4/toggle1 /4/toggle2 /4/toggle3 /4;
#X obj 465 83 route /multi/5;
#X obj 627 50 unpack 0 0;
#X obj 635 87 expr 180.0*($f1-0.5);
#X obj 576 68 expr 180*($f1-0.5);
#X obj 573 88 s camrotx;
#X obj 632 105 s camroty;
#X floatatom 586 148 5 0 0 0 - - -;
#X obj 159 94 dumpOSC 1245;
#X connect 1 0 0 0;
#X connect 3 0 5 0;
#X connect 3 1 4 0;
#X connect 4 0 7 0;
#X connect 5 0 6 0;
#X connect 9 0 15 0;
#X connect 10 0 11 1;
#X connect 11 0 9 1;
#X connect 12 0 13 0;
#X connect 12 1 9 0;
#X connect 13 0 16 0;
#X connect 13 1 14 0;
#X connect 13 2 15 0;
#X connect 13 3 14 0;
#X connect 14 0 11 0;
#X connect 16 0 15 0;
#X connect 19 0 2 0;
#X connect 19 0 3 0;
#X connect 19 1 8 0;
#X connect 19 2 12 0;
#X connect 19 3 17 0;
#X connect 19 4 18 0;
#X connect 20 0 21 0;
#X connect 21 0 23 0;
#X connect 21 1 22 0;
#X connect 21 1 26 0;
#X connect 22 0 25 0;
#X connect 23 0 24 0;
#X connect 27 0 1 0;
#X connect 27 0 19 0;
#X connect 27 0 20 0;
#X coords 0 0 1 1 85 60 0;
#X restore 1060 -2 pd touchosc;
#N canvas 29 456 1149 271 visu 0;
#X floatatom 74 125 5 0 0 0 velocity batonvelocityx-in batonvelocityx
;
#X floatatom 84 148 5 0 0 0 thickness batonthickness-in batonthickness
;
#X floatatom 89 170 5 0 0 0 size batonsize-in batonsize;
#X floatatom 91 191 5 0 0 0 alpha batonalpha-in batonalpha;
#X obj 1101 137 tgl 15 0 squaremode squaremode-in Mode 17 7 0 10 -262144
-1 -1 0 1;
#X obj 227 77 tgl 15 0 starmode starmode-in Mode 17 7 0 10 -262144
-1 -1 0 1;
#X obj 60 50 tgl 15 0 isBaton isBaton-in Baton 17 7 0 10 -262144 -1
-1 0 1;
#X obj 226 53 tgl 15 0 isStar isStar-in Star 17 7 0 10 -262144 -1 -1
0 1;
#X obj 1104 104 tgl 15 0 isSquare isSquare-in Square 17 7 0 10 -262144
-1 -1 0 1;
#X obj 334 48 tgl 15 0 isPooler isPooler-in Pooler 17 7 0 10 -262144
-1 -1 0 1;
#X floatatom 361 134 5 0 0 0 thickness poolthickness-in poolthickness
;
#X floatatom 361 158 5 0 0 0 poolres poolres-in poolres;
#X floatatom 363 176 5 0 0 0 downsample pooldownsample-in pooldownsample
;
#X floatatom 364 200 5 0 0 0 amp poolamp-in poolamp;
#X obj 333 82 hradio 15 1 0 3 poolmode poolmode-in mode 0 -8 0 10 -262144
-1 -1 0;
#X floatatom 120 124 5 0 0 0 y batonvelocityy-in batonvelocityy;
#X floatatom 164 124 5 0 0 0 z batonvelocityz-in batonvelocityz;
#N canvas 0 22 450 300 rotatevel 0;
#X obj 103 39 inlet;
#X obj 104 67 tgl 15 0 empty empty empty 17 7 0 10 -262144 -1 -1 0
1;
#X obj 102 204 sin;
#X obj 105 105 metro 100;
#X obj 105 129 counter 360;
#X obj 105 152 / 360;
#X floatatom 193 80 5 0 0 0 - - -;
#X obj 114 179 * 6.3;
#X obj 154 208 cos;
#X obj 25 254 s batonvelocityx-in;
#X obj 91 229 * 1;
#X obj 193 227 * 1;
#X floatatom 236 179 5 0 0 0 - - -;
#X obj 198 254 s batonvelocityy-in;
#X obj 192 51 inlet;
#X obj 238 156 inlet;
#X connect 0 0 1 0;
#X connect 1 0 3 0;
#X connect 2 0 10 0;
#X connect 3 0 4 0;
#X connect 4 0 5 0;
#X connect 5 0 7 0;
#X connect 6 0 4 4;
#X connect 6 0 5 1;
#X connect 7 0 2 0;
#X connect 7 0 8 0;
#X connect 8 0 11 0;
#X connect 10 0 9 0;
#X connect 11 0 13 0;
#X connect 12 0 11 1;
#X connect 12 0 10 1;
#X connect 14 0 6 0;
#X connect 15 0 12 0;
#X restore -63 125 pd rotatevel;
#X obj 40 98 tgl 15 0 empty empty empty 17 7 0 10 -262144 -1 -1 0 1
;
#X floatatom 72 96 5 0 0 0 - - -;
#X floatatom 116 95 5 0 0 0 - - -;
#X obj 47 78 hradio 15 1 0 3 batonmode batonmode-in mode 0 -8 0 10
-262144 -1 -1 0;
#X obj 174 5 tgl 15 0 visufollowcam visufollowcam-in followcam 17 7
0 10 -262144 -1 -1 0 1;
#X floatatom 354 111 5 0 0 0 bounce poolbounce-in poolbounce;
#X obj 461 51 tgl 15 0 isnoisec isnoisec-in noiseCircle 17 7 0 10 -262144
-1 -1 0 1;
#X floatatom 467 98 5 0 0 0 noise noisecnoise-in noisecnoise;
#X floatatom 467 122 5 0 0 0 numcircle noisecnumc-in noisecnumc;
#X floatatom 460 75 5 0 0 0 rmax noisecrmax-in noisecrmax;
#X obj 584 46 tgl 15 0 isRuban isRuban-in Ruban 17 7 0 10 -262144 -1
-1 0 1;
#X floatatom 580 91 5 0 0 0 gravity rubangravity-in rubangravity;
#X obj 1107 170 tgl 15 0 isspider isspider-in spider 17 7 0 10 -262144
-1 -1 0 1;
#X floatatom 1118 224 5 0 0 0 velocity spidervel-in spidervel;
#X floatatom 1121 266 5 0 0 0 number spidernum-in spidernum;
#X obj 656 46 tgl 15 0 isplanet isplanet-in planet 17 7 0 10 -262144
-1 -1 0 1;
#X obj 659 72 tgl 15 0 planetisbeat planetisbeat-in beat 17 7 0 10
-262144 -1 -1 0 1;
#X floatatom 672 113 5 0 0 0 alpha planetalpha-in planetalpha;
#X connect 18 0 17 0;
#X connect 19 0 17 1;
#X connect 20 0 17 2;
#X coords 0 -1 1 1 805 250 1 0 0;
#X restore 616 138 pd visu;
#N canvas 298 101 911 555 beat 1;
#X obj 309 365 tgl 25 0 beat beat-in beat 17 7 0 10 -4034 -1 -1 0 1
;
#X obj 599 20 adc~;
#X obj 571 134 bark~;
#X obj 601 -7 r bark;
#X obj 343 73 bng 15 250 50 0 empty empty empty 17 7 0 10 -262144 -1
-1;
#N canvas 131 322 450 300 del 0;
#X obj 190 39 inlet;
#X obj 177 140 t b b b;
#X msg 203 190 1;
#X msg 165 187 0;
#X obj 166 212 tgl 15 0 empty empty empty 17 7 0 10 -262144 -1 -1 0
1;
#X obj 198 249 outlet;
#X obj 173 166 del 100;
#X obj 188 90 bng 15 250 50 0 empty empty empty 17 7 0 10 -262144 -1
-1;
#X obj 358 43 inlet;
#X connect 0 0 7 0;
#X connect 1 0 6 0;
#X connect 1 2 2 0;
#X connect 2 0 4 0;
#X connect 3 0 4 0;
#X connect 4 0 5 0;
#X connect 6 0 3 0;
#X connect 7 0 1 0;
#X connect 8 0 6 1;
#X restore 340 305 pd del;
#X floatatom 443 231 5 0 0 0 - - -;
#X obj 437 74 bng 15 250 50 0 empty empty empty 17 7 0 10 -262144 -1
-1;
#X msg 396 69 2;
#X msg 369 70 4;
#X msg 375 270 100;
#X floatatom 374 287 5 0 0 0 - - -;
#X obj 362 123 vsl 15 78 0 300 0 0 empty empty empty 0 -9 0 10 -262144
-1 -1 1170 1;
#N canvas 0 22 478 346 scale 0;
#X obj 77 60 inlet;
#X obj 83 110 -;
#X obj 161 63 inlet;
#X obj 247 60 inlet;
#X obj 178 167 -;
#X obj 94 141 t f b;
#X obj 98 204 /;
#X obj 121 294 outlet;
#X obj 108 228 * 100;
#X obj 123 247 max 0;
#X obj 131 271 change;
#X connect 0 0 1 0;
#X connect 1 0 5 0;
#X connect 2 0 1 1;
#X connect 2 0 4 1;
#X connect 3 0 4 0;
#X connect 4 0 6 1;
#X connect 5 0 6 0;
#X connect 5 1 4 0;
#X connect 6 0 8 0;
#X connect 8 0 9 0;
#X connect 9 0 10 0;
#X connect 10 0 7 0;
#X restore 830 277 pd scale;
#X obj 813 312 vsl 15 128 -1 100 0 0 audioenv audioenv-in envlop_out
0 -9 0 10 -262144 -1 -1 0 1;
#X obj 379 123 vsl 15 78 -10 300 0 0 empty empty empty 0 -9 0 10 -262144
-1 -1 0 1;
#X obj 396 123 vsl 15 78 0 300 0 0 empty empty empty 0 -9 0 10 -262144
-1 -1 7700 1;
#X obj 803 278 gate;
#X obj 357 104 tgl 15 0 audiosendenv audiosendenv-in sendenv 17 7 0
10 -262144 -1 -1 0 1;
#X obj 772 278 edge;
#X obj 562 158 gate;
#X obj 341 47 tgl 15 0 empty empty sendattack 17 7 0 10 -262144 -1
-1 0 1;
#N canvas 0 22 450 300 bark 0;
#N canvas 30 372 627 340 init 0;
#X msg 20 123 \; pd dsp 1 \;;
#X obj 57 -24 loadbang;
#X msg 455 153 thresh -1 5.5;
#X obj 343 228 s bark;
#X msg 377 71 mask 4 0.75;
#X msg 337 38 debounce 200;
#X obj 57 -1 t b b b b b b;
#X obj 149 -18 bng 15 250 50 0 empty empty empty 17 7 0 10 -262144
-1 -1;
#X msg 422 114 filter_range 0 15;
#X connect 1 0 6 0;
#X connect 2 0 3 0;
#X connect 4 0 3 0;
#X connect 5 0 3 0;
#X connect 6 0 0 0;
#X connect 6 2 5 0;
#X connect 6 3 4 0;
#X connect 6 4 8 0;
#X connect 6 5 2 0;
#X connect 7 0 6 0;
#X connect 8 0 3 0;
#X restore 18 -11 pd init;
#N canvas 387 623 1121 724 other-messages-and-settings 0;
#X msg 162 129 debug \$1;
#X obj 335 649 s bark;
#X msg 56 79 spew \$1;
#X obj 162 109 tgl 15 0 empty empty empty 17 7 0 10 -262144 -1 -1 0
1;
#X obj 56 59 tgl 15 0 empty empty empty 17 7 0 10 -262144 -1 -1 0 1
;
#X msg 452 622 print;
#X msg 431 589 filter_freqs;
#X obj 32 251 tgl 15 0 empty empty empty 17 7 0 10 -262144 -1 -1 0
1;
#X msg 32 271 measure \$1;
#X obj 172 324 tgl 15 0 empty empty empty 17 7 0 10 -262144 -1 -1 0
1;
#X obj 391 504 tgl 15 0 empty empty empty 17 7 0 10 -262144 -1 -1 0
1;
#X msg 391 524 loudness \$1;
#X floatatom 335 372 5 0 0 1 - - -;
#X msg 335 390 debounce \$1;
#X text 499 622 Print current settings in the post window.;
#X text 417 492 Apply a loudness weighting curve to the Bark spectrum
before measuring growth.;
#X text 384 357 Block onset reports for a given number of millseconds
after an onset is detected.;
#X text 185 95 With debug on \, growth values will be posted for every
onset report \, giving the peak and lower values.;
#X text 83 18 With spew mode on \, the list of growth per band and
total growth is output on every analysis period. Note that this is
different from bonk~'s spew mode \, which provides the power in each
band \, not the growth.;
#X obj 56 163 s bark;
#X text 125 234 Turn "measure" on \, then off after a few seconds to
measure average growth. If you measure during an example of relative
slience for your input signal \, you can get an idea of appropriate
growth thresholds \, and make changes with the "thresh" message. Peak
growth is also reported.;
#X text 430 557 Print the center frequency of each filter in the Bark
spaced filterbank. Results show up in the post window.;
#X floatatom 365 432 5 0 0 1 - - -;
#X msg 365 450 minvel \$1;
#X text 454 420 Ignore onsets that are below a certain amplitude threshold.
Units are not dB or MIDI velocity \, but the sum of the energy in all
filterbands. You'll have to fiddle with it based on your input.;
#X obj -82 453 tgl 15 0 empty empty empty 17 7 0 10 -262144 -1 -1 0
1;
#X msg -82 473 filter_avg \$1;
#X obj 648 259 s bark;
#X obj 548 186 hradio 15 1 0 5 empty empty empty 0 -8 0 10 -262144
-1 -1 0;
#X msg 548 206 window_function \$1;
#X text 546 149 Change windowing function. Rectangular (0) \, Blackman
(1) \, Cosine (2) \, Hamming (3) \, or Hann (4). (default: Hann);
#X msg 172 344 power_spectrum \$1;
#X obj -131 -2 cnv 10 400 10 empty empty empty 20 12 0 14 -233017 -66577
0;
#X obj -131 -2 cnv 10 10 400 empty empty empty 20 12 0 14 -233017 -66577
0;
#X text -83 419 Average rather than sum energy in \; each filter according
to its width.;
#X text 197 324 Use power vs. magnitude spectrum (default is power).
;
#X connect 0 0 19 0;
#X connect 2 0 19 0;
#X connect 3 0 0 0;
#X connect 4 0 2 0;
#X connect 5 0 1 0;
#X connect 6 0 1 0;
#X connect 7 0 8 0;
#X connect 8 0 1 0;
#X connect 9 0 31 0;
#X connect 10 0 11 0;
#X connect 11 0 1 0;
#X connect 12 0 13 0;
#X connect 13 0 1 0;
#X connect 22 0 23 0;
#X connect 23 0 1 0;
#X connect 25 0 26 0;
#X connect 26 0 1 0;
#X connect 28 0 29 0;
#X connect 29 0 27 0;
#X connect 31 0 1 0;
#X restore 18 10 pd other-messages-and-settings;
#X obj 15 223 s bark;
#N canvas 567 151 477 161 thresh-details 0;
#X text 26 19 As with bonk~ \, the thresh message lets you specify
lower and upper growth thresholds. An onset is reported when growth
exceeds the upper threshold \, then falls below the lower threshold.
If lower threshold is set to -1 \, onsets are reported at the first
sign of decay after growth exceeds the upper threshold.;
#X text 26 109 See the [pd other-messages-and-settings] subpatch for
information on the "measure" function \, which can help you find appropriate
thresholds.;
#X restore 215 52 pd thresh-details;
#N canvas 803 187 477 161 mask-details 0;
#X text 18 49 As with bonk~ \, you can specify a number of analysis
periods and decay rate for the energy mask.;
#X restore 215 92 pd mask-details;
#N canvas 816 269 464 176 debounce-details 0;
#X text 18 39 The spectral flux that goes on during the first few milliseconds
of an instrument's attack can cause extra onset reports. Provide a
time in milliseconds with the "debounce" message to deal with this.
After an onset report \, bark~ will then suppress further onset reporting
until that number of milliseconds goes by. This feature is useful for
eliminating a burst of attack reports when the first one is all you
really needed.;
#X restore 215 132 pd debounce-details;
#X msg 75 172 filter_range 0 20;
#N canvas 810 377 466 228 filter_range-details 0;
#X text 18 158 You can send bark~ the "filter_freqs" message to see
the center frequency in Hz of each filter in the bank.;
#X text 18 39 Use the "filter_range" message to specify a range of
filters to use in the total growth measurement. The appropriate limits
for these values depend on how many filters are in the Bark filterbank.
With the default spacing of 0.5 Barks \, you get 47 filters \, so "filter_range
0 46" would cause bark~ to use the entire filterbank. If you think
you can capture attacks with only high frequencies \, you might want
to try "filter_range 30 46" \, for instance.;
#X restore 215 172 pd filter_range-details;
#X msg 35 92 mask 4 0.5;
#X msg 55 132 debounce 300;
#X msg 15 52 thresh 7.5 9.5;
#X connect 6 0 2 0;
#X connect 8 0 2 0;
#X connect 9 0 2 0;
#X connect 10 0 2 0;
#X restore 590 111 pd bark settings;
#X floatatom 240 67 5 0 0 0 damp camwiggledamp-in camwiggledamp;
#X text 230 35 cam wiggler;
#X floatatom 236 93 5 0 0 0 amplitude camwiggleamp-in camwiggleamp
;
#X floatatom 235 110 5 0 0 0 frequency camwigglefreq-in camwigglefreq
;
#X floatatom 234 130 5 0 0 0 phase camwigglephase-in camwigglephase
;
#X floatatom 236 161 5 0 0 0 zoomdamp camwigglezoomdamp-in camwigglezoomdamp
;
#X floatatom 235 181 5 0 0 0 zoomamp camwigglezoomamp-in camwigglezoomamp
;
#X floatatom 924 471 5 0 0 0 - - -;
#X obj 817 471 gate;
#X obj 851 434 tgl 15 0 empty empty empty 17 7 0 10 -262144 -1 -1 0
1;
#X obj 827 541 s camdist-in;
#X floatatom 934 562 5 0 0 0 - - -;
#X obj 826 514 expr 100 - $f1 * $f2 / 100;
#X floatatom 321 185 5 0 0 2 down - -;
#X obj 753 75 env~ 2048 1024;
#X obj 666 49 lop~ 0.3;
#X floatatom 754 30 5 0 0 0 - - -;
#X obj 830 43 / 100;
#X obj 791 117 * 1;
#X floatatom 321 152 5 0 0 2 dilate - -;
#X obj 851 471 edge;
#X msg 868 492 100;
#X obj 336 249 counter 1;
#N canvas 0 22 624 515 taptempo 0;
#X obj 246 118 inlet;
#X obj 82 307 inlet;
#X obj 234 182 timer;
#X obj 234 154 t b b;
#X floatatom 310 280 5 0 0 0 - - -;
#X obj 250 285 bng 15 250 50 0 empty empty empty 17 7 0 10 -262144
-1 -1;
#X obj 269 252 sel 0;
#X obj 332 318 mean 4;
#X msg 269 301 clear;
#X floatatom 327 345 5 0 0 0 - - -;
#X obj 235 207 expr $f1 \; if($f1<1500 \, $f1 \, 0);
#X obj 294 446 metro 2000;
#X obj 121 336 tgl 15 0 empty empty empty 17 7 0 10 -262144 -1 -1 0
1;
#X obj 321 411 t b f;
#X obj 289 469 outlet;
#X obj 382 381 * 1;
#X obj 394 349 t b f;
#X obj 393 322 inlet;
#X connect 0 0 3 0;
#X connect 1 0 12 0;
#X connect 2 0 10 0;
#X connect 3 0 2 0;
#X connect 3 1 2 1;
#X connect 4 0 7 0;
#X connect 5 0 8 0;
#X connect 6 0 5 0;
#X connect 6 1 4 0;
#X connect 7 0 9 0;
#X connect 8 0 7 0;
#X connect 9 0 15 0;
#X connect 9 0 13 0;
#X connect 10 1 6 0;
#X connect 11 0 14 0;
#X connect 12 0 11 0;
#X connect 13 0 11 0;
#X connect 13 1 11 1;
#X connect 15 0 11 1;
#X connect 16 0 15 0;
#X connect 16 1 15 1;
#X connect 17 0 16 0;
#X restore 301 287 pd taptempo;
#X obj 19 32 tgl 35 0 empty empty active 17 7 0 10 -4034 -1 -1 0 1
;
#X obj 22 78 bng 25 250 50 0 empty taptempo-in tap 17 7 0 10 -258113
-1 -1;
#X msg 43 184 2;
#X msg 17 166 0.5;
#X msg 17 146 0.333;
#X msg 17 184 1;
#X msg 743 277 -1;
#X obj -15 315 gate;
#X obj 8 298 edge;
#X obj 74 69 tgl 15 0 empty empty reset 17 7 0 10 -262144 -1 -1 0 1
;
#X obj -16 331 s reset-in;
#X obj 1 422 s finalblur-in;
#X obj 0 404 gate;
#X obj 76 124 tgl 15 0 empty empty empty 17 7 0 10 -262144 -1 -1 0
1;
#X obj 62 405 *;
#X floatatom 91 124 5 0 0 2 finalblur - -;
#X obj 394 -51 loadbang;
#X msg 391 -21 300;
#X obj 704 98 log;
#X obj 705 135 + 0;
#X floatatom 719 115 5 0 0 0 - - -;
#X obj 707 170 *;
#X floatatom 722 152 5 0 0 0 - - -;
#X obj 815 118 - 1;
#X obj -12 247 gate;
#X obj 74 90 tgl 15 0 empty empty origin 17 7 0 10 -262144 -1 -1 0
1;
#X obj -11 278 s origin-in;
#X obj -12 261 edge;
#X obj 75 37 tgl 15 0 empty empty changecolor 17 7 0 10 -262144 -1
-1 0 1;
#X obj 609 270 bng 15 250 50 0 empty empty empty 17 7 0 10 -262144
-1 -1;
#N canvas 0 22 450 300 changecolor 0;
#X obj 143 57 inlet;
#X floatatom 44 272 5 0 0 0 rback - rback-in;
#X floatatom 97 270 5 0 0 0 g - gback-in;
#X floatatom 142 271 5 0 0 0 b - bback-in;
#X floatatom 200 275 5 0 0 0 rpart - rpart-in;
#X floatatom 244 280 5 0 0 0 g - gpart-in;
#X floatatom 289 281 5 0 0 0 b - bpart-in;
#X floatatom 51 207 5 0 0 0 - - -;
#X floatatom 96 208 5 0 0 0 - - -;
#X floatatom 140 211 5 0 0 0 - - -;
#X floatatom 186 206 5 0 0 0 - - -;
#X floatatom 231 207 5 0 0 0 - - -;
#X floatatom 275 210 5 0 0 0 - - -;
#X obj 147 165 t b b b b b b b;
#X obj 28 238 gate 2;
#X obj 82 240 gate 2;
#X obj 134 239 gate 2;
#X obj 191 244 gate 2;
#X obj 245 246 gate 2;
#X obj 297 245 gate 2;
#X obj 307 200 + 1;
#X obj 292 179 tgl 15 0 empty empty empty 17 7 0 10 -262144 -1 -1 0
1;
#X connect 0 0 13 0;
#X connect 7 0 14 1;
#X connect 8 0 15 1;
#X connect 9 0 16 1;
#X connect 10 0 17 1;
#X connect 11 0 18 1;
#X connect 12 0 19 1;
#X connect 13 0 7 0;
#X connect 13 1 8 0;
#X connect 13 2 9 0;
#X connect 13 3 10 0;
#X connect 13 4 11 0;
#X connect 13 5 12 0;
#X connect 13 6 21 0;
#X connect 14 0 1 0;
#X connect 14 1 4 0;
#X connect 15 0 2 0;
#X connect 15 1 5 0;
#X connect 16 0 3 0;
#X connect 16 1 6 0;
#X connect 17 0 4 0;
#X connect 17 1 1 0;
#X connect 18 0 5 0;
#X connect 18 1 2 0;
#X connect 19 0 6 0;
#X connect 19 1 3 0;
#X connect 20 0 19 0;
#X connect 20 0 18 0;
#X connect 20 0 17 0;
#X connect 20 0 16 0;
#X connect 20 0 15 0;
#X connect 20 0 14 0;
#X connect 21 0 20 0;
#X restore -18 372 pd changecolor;
#X obj -20 350 gate;
#X obj 105 352 s planetisbeat;
#X obj 104 334 gate;
#X obj 76 145 tgl 15 0 empty empty planetbeat 17 7 0 10 -262144 -1
-1 0 1;
#X obj 101 372 gate;
#X obj 114 408 s isAttractors-in;
#X obj 76 166 tgl 15 0 empty empty isAttractors 17 7 0 10 -262144 -1
-1 0 1;
#X obj -49 39 edge;
#X msg -45 63 1;
#X text 340 20 Audio-in;
#X connect 0 0 55 0;
#X connect 0 0 59 1;
#X connect 0 0 71 1;
#X connect 0 0 78 1;
#X connect 0 0 80 1;
#X connect 0 0 82 1;
#X connect 1 0 2 0;
#X connect 1 0 38 0;
#X connect 1 0 37 0;
#X connect 2 0 20 1;
#X connect 3 0 2 0;
#X connect 4 0 45 0;
#X connect 5 0 0 0;
#X connect 6 0 45 4;
#X connect 7 0 5 0;
#X connect 8 0 45 4;
#X connect 9 0 45 4;
#X connect 10 0 5 1;
#X connect 11 0 5 1;
#X connect 12 0 13 0;
#X connect 13 0 17 1;
#X connect 14 0 31 1;
#X connect 15 0 13 1;
#X connect 16 0 13 2;
#X connect 17 0 14 0;
#X connect 18 0 17 0;
#X connect 18 0 19 0;
#X connect 19 1 53 0;
#X connect 20 0 4 0;
#X connect 21 0 20 0;
#X connect 30 0 35 1;
#X connect 31 0 35 0;
#X connect 32 0 31 0;
#X connect 32 0 43 0;
#X connect 35 0 33 0;
#X connect 35 0 34 0;
#X connect 36 0 70 1;
#X connect 37 0 41 0;
#X connect 39 0 40 0;
#X connect 40 0 38 1;
#X connect 41 0 70 0;
#X connect 42 0 41 1;
#X connect 43 1 44 0;
#X connect 44 0 33 0;
#X connect 45 2 7 0;
#X connect 46 0 5 0;
#X connect 47 0 46 0;
#X connect 48 0 46 1;
#X connect 48 0 85 0;
#X connect 49 0 46 2;
#X connect 50 0 46 2;
#X connect 51 0 46 2;
#X connect 52 0 46 2;
#X connect 53 0 14 0;
#X connect 54 0 57 0;
#X connect 55 0 54 1;
#X connect 56 0 54 0;
#X connect 59 0 61 0;
#X connect 60 0 59 0;
#X connect 61 0 58 0;
#X connect 62 0 61 1;
#X connect 63 0 64 0;
#X connect 64 0 16 0;
#X connect 65 0 66 0;
#X connect 66 0 68 0;
#X connect 67 0 66 1;
#X connect 69 0 68 1;
#X connect 70 0 12 0;
#X connect 71 0 74 0;
#X connect 72 0 71 0;
#X connect 74 0 73 0;
#X connect 75 0 78 0;
#X connect 78 0 77 0;
#X connect 80 0 79 0;
#X connect 81 0 80 0;
#X connect 82 0 83 0;
#X connect 84 0 82 0;
#X connect 85 0 86 0;
#X connect 86 0 47 0;
#X coords 0 -1 1 1 450 200 1 10 10;
#X restore 987 406 pd beat;
#N canvas 0 22 527 262 particles 0;
#X floatatom 68 60 5 0 0 2 k korigin-in korigin;
#X obj 8 62 tgl 15 0 origin origin-in Origin 0 22 0 10 -262144 -1 -1
0 1;
#X floatatom 105 59 5 0 0 2 z zorigin-in zorigin;
#X obj 166 43 tgl 15 0 gravity gravity-in Gravity 17 7 0 10 -262144
-1 -1 0 1;
#X floatatom 235 43 5 0 0 0 - Gx-in Gx;
#X floatatom 325 81 5 0 0 2 friction_coef fr-in fr;
#X floatatom 360 49 5 0 0 1 minv minv-in minv;
#X floatatom 358 100 5 0 0 1 maxv maxv-in maxv;
#X obj 14 204 tgl 15 0 border border-in border 17 7 0 10 -262144 -1
-1 0 1;
#X floatatom 82 204 5 0 0 0 r rborder-in rborder;
#X floatatom 172 205 5 0 0 0 k kborder-in kborder;
#X floatatom 216 206 5 0 0 0 z zborder-in zborder;
#X obj 11 121 tgl 15 0 netw netw-in netw 17 7 0 10 -262144 -1 -1 0
1;
#X floatatom 72 120 5 0 0 0 l lnetw-in lnetw;
#X floatatom 121 120 5 0 0 0 k knetw-in knetw;
#X floatatom 167 122 5 0 0 0 z znetw-in znetw;
#X obj 14 153 tgl 15 0 neth neth-in neth 17 7 0 10 -262144 -1 -1 0
1;
#X floatatom 70 151 5 0 0 0 l lneth-in lneth;
#X floatatom 120 151 5 0 0 0 k kneth-in kneth;
#X floatatom 166 151 5 0 0 0 z zneth-in zneth;
#X floatatom 129 225 5 0 0 0 zmax zmaxborder-in zmaxborder;
#X floatatom 127 190 5 0 0 0 zmin zminborder-in zminborder;
#X floatatom 314 182 5 0 0 3 blob_force blobforce-in blobforce;
#X floatatom 312 144 5 0 0 3 blob_z blobz-in blobz;
#X floatatom 371 146 5 0 0 3 blob_outvel bloboutvel-in bloboutvel;
#X obj 335 220 tgl 15 0 blobin blobin-in repuls/attr 17 7 0 10 -262144
-1 -1 0 1;
#X floatatom 377 183 5 0 0 3 blob_blur blobblur-in blobblur;
#X obj 8 45 tgl 15 0 forceorigin forceorigin-in force 17 7 0 10 -262144
-1 -1 0 1;
#X floatatom 323 37 5 0 0 2 min_coef frmin-in frmin;
#X obj 77 82 hradio 15 1 0 3 origintype origintype-in type 0 20 0 10
-262144 -1 -1 0;
#X floatatom 207 145 5 0 0 3 randomness random-in random;
#X floatatom 234 62 5 0 0 0 - Gy-in Gy;
#X floatatom 236 82 5 0 0 0 - Gz-in Gz;
#X obj 208 122 tgl 15 0 netshot netshot-in shot 17 7 0 10 -262144 -1
-1 0 1;
#X coords 0 -1 1 1 505 250 1 0 0;
#X restore 91 153 pd particles;
#N canvas 0 22 450 300 saver 0;
#X obj 21 37 bng 25 250 50 0 reset reset-in reset 0 -7 0 10 -258113
-1 -1;
#X obj 121 208 bng 15 250 50 0 empty empty empty 17 7 0 10 -262144
-1 -1;
#X msg 64 28 read;
#X obj 22 76 bng 25 250 50 0 empty empty rec 0 -7 0 10 -258113 -1 -1
;
#N canvas 333 99 659 559 presets 0;
#X obj 308 26 inlet;
#X obj 144 112 folder_list;
#X obj 141 133 prepend;
#X obj 213 136 l;
#X obj 274 110 bng 15 250 50 0 empty empty empty 17 7 0 10 -262144
-1 -1;
#X obj 158 160 l;
#X obj 202 70 t b a b;
#X obj 60 122 del 300;
#X obj 150 363 list-idx;
#X obj 227 201 list-len;
#X obj 165 183 t l l;
#X floatatom 231 219 5 0 0 0 - - -;
#X msg 214 40 symbol 15d/*;
#X obj 150 335 l;
#X obj 200 322 t b f;
#X obj 153 390 prepend read;
#X obj 139 413 outlet;
#X obj 77 4 loadbang;
#X obj 429 25 inlet;
#X text 348 26 +1;
#X text 473 25 -1;
#X floatatom 264 275 5 0 0 0 - - -;
#X obj 323 150 counter 0 10;
#X msg 458 79 dec;
#X msg 319 63 inc;
#X obj 230 239 - 1;
#X obj 283 412 outlet;
#X connect 0 0 24 0;
#X connect 1 0 2 0;
#X connect 2 0 3 0;
#X connect 3 0 2 1;
#X connect 3 0 5 1;
#X connect 4 0 2 1;
#X connect 5 0 10 0;
#X connect 6 0 7 0;
#X connect 6 1 1 0;
#X connect 6 2 4 0;
#X connect 7 0 5 0;
#X connect 8 0 15 0;
#X connect 9 0 11 0;
#X connect 10 0 13 1;
#X connect 10 1 9 0;
#X connect 11 0 25 0;
#X connect 12 0 6 0;
#X connect 13 0 8 0;
#X connect 14 0 13 0;
#X connect 14 1 8 1;
#X connect 15 0 16 0;
#X connect 17 0 12 0;
#X connect 18 0 23 0;
#X connect 21 0 14 0;
#X connect 21 0 26 0;
#X connect 22 0 21 0;
#X connect 23 0 22 0;
#X connect 24 0 22 0;
#X connect 25 0 22 4;
#X restore 80 155 pd presets;
#X floatatom 98 66 5 0 0 0 - - -;
#N canvas 244 196 450 300 keyboard 0;
#X obj 124 4 key;
#X obj 258 131 == 51;
#X obj 198 131 == 249;
#X obj 140 131 == 103;
#X obj 89 131 == 64;
#X msg 186 65 0;
#X obj 124 65 t f b;
#X obj 86 170 edge;
#X obj 140 170 edge;
#X obj 200 170 edge;
#X obj 259 170 edge;
#X obj 84 210 outlet;
#X obj 139 210 outlet;
#X obj 199 209 outlet;
#X obj 259 207 outlet;
#X obj 98 36 gate;
#X obj 46 12 inlet;
#X text 200 235 ù;
#X connect 0 0 15 1;
#X connect 1 0 10 0;
#X connect 2 0 9 0;
#X connect 3 0 8 0;
#X connect 4 0 7 0;
#X connect 5 0 1 0;
#X connect 5 0 2 0;
#X connect 5 0 3 0;
#X connect 5 0 4 0;
#X connect 6 0 1 0;
#X connect 6 0 2 0;
#X connect 6 0 3 0;
#X connect 6 0 4 0;
#X connect 6 1 5 0;
#X connect 7 0 11 0;
#X connect 8 0 12 0;
#X connect 9 0 13 0;
#X connect 10 0 14 0;
#X connect 15 0 6 0;
#X connect 16 0 15 0;
#X restore 247 24 pd keyboard;
#X obj 49 206 saver;
#X obj 417 51 s split-in;
#X obj 233 13 tgl 15 0 empty empty empty 17 7 0 10 -262144 -1 -1 0
1;
#X obj 254 54 s origin-in;
#X obj 324 50 s taptempo-in;
#X obj 72 53 bng 15 250 50 0 empty empty + 17 7 0 10 -262144 -1 -1
;
#X obj 70 73 bng 15 250 50 0 empty empty - 17 7 0 10 -262144 -1 -1
;
#X connect 1 0 7 2;
#X connect 2 0 7 1;
#X connect 3 0 7 0;
#X connect 4 0 7 1;
#X connect 4 1 5 0;
#X connect 6 0 0 0;
#X connect 6 1 10 0;
#X connect 6 2 11 0;
#X connect 6 3 8 0;
#X connect 9 0 6 0;
#X connect 12 0 4 0;
#X connect 13 0 4 1;
#X coords 0 -1 1 1 125 100 1 10 10;
#X restore 852 -9 pd saver;
