#N canvas 409 294 512 346 10;
#X obj 62 346 prepend list;
#X obj 40 207 list prepend;
#X obj 116 169 + 1;
#X obj 87 169 f 0;
#X obj 17 138 t l b;
#X msg 250 229 clear;
#X obj 3 78 l;
#N canvas 0 22 450 300 checkexistence 0;
#X obj 248 134 prepend;
#X obj 141 133 list-find;
#X obj 118 -16 list split 1;
#X obj 107 102 l;
#X obj 179 160 == 0;
#X obj 31 151 edge;
#X obj 29 27 t b;
#X msg 30 56 0;
#X obj 44 -49 inlet;
#X obj 38 243 outlet;
#X obj 248 159 t l;
#X obj 255 48 inlet;
#X obj 148 187 outlet;
#X connect 0 0 10 0;
#X connect 1 0 12 0;
#X connect 1 1 4 0;
#X connect 2 0 3 1;
#X connect 2 0 1 0;
#X connect 3 0 0 0;
#X connect 4 0 5 0;
#X connect 5 0 3 0;
#X connect 5 0 9 0;
#X connect 6 0 7 0;
#X connect 7 0 5 0;
#X connect 8 0 2 0;
#X connect 8 0 6 0;
#X connect 10 0 0 1;
#X connect 10 0 1 1;
#X connect 11 0 0 1;
#X connect 11 0 1 1;
#X restore -6 28 pd checkexistence;
#X obj 199 -27 inlet;
#X obj 168 4 t b b;
#X msg 167 30 0;
#X obj 148 -27 bng 15 250 50 0 empty empty empty 17 7 0 10 -262144
-1 -1;
#X obj 94 72 t b f;
#X obj -5 -2 t l l;
#X obj -16 -23 r savesend;
#X obj -79 -13 inlet;
#X obj -160 112 s saveactive;
#X obj 70 -8 inlet;
#X obj 60 279 coll;
#C restore;
#X obj -106 51 tgl 15 0 empty empty empty 17 7 0 10 -262144 -1 -1 0
1;
#X obj -77 32 del 500;
#X msg -110 23 1;
#X msg -60 70 0;
#X obj -56 127 del 100;
#X msg -53 175 write;
#X msg -64 250 dump;
#X obj -45 315 route gradname;
#X msg -146 404 \; \$1-in \$2 \$3;
#X obj -139 335 prepend list gradname symbol;
#X msg 64 406 \; \$1-in \$2 \$3;
#X connect 0 0 29 0;
#X connect 1 0 18 0;
#X connect 2 0 3 1;
#X connect 3 0 2 0;
#X connect 3 0 1 1;
#X connect 4 0 1 0;
#X connect 4 1 3 0;
#X connect 5 0 18 0;
#X connect 6 0 4 0;
#X connect 7 0 6 0;
#X connect 7 1 12 0;
#X connect 8 0 9 0;
#X connect 9 0 10 0;
#X connect 9 1 7 1;
#X connect 9 1 5 0;
#X connect 10 0 3 1;
#X connect 11 0 9 0;
#X connect 12 0 6 0;
#X connect 12 1 3 1;
#X connect 13 0 7 0;
#X connect 13 1 6 1;
#X connect 14 0 13 0;
#X connect 15 0 20 0;
#X connect 15 0 21 0;
#X connect 17 0 18 0;
#X connect 18 0 0 0;
#X connect 18 2 25 0;
#X connect 19 0 16 0;
#X connect 20 0 22 0;
#X connect 21 0 19 0;
#X connect 22 0 19 0;
#X connect 22 0 23 0;
#X connect 23 0 24 0;
#X connect 24 0 18 0;
#X connect 25 0 18 0;
#X connect 26 0 28 0;
#X connect 26 1 0 0;
#X connect 28 0 27 0;
