{
	"patcher" : 	{
		"fileversion" : 1,
		"rect" : [ 575.0, 294.0, 316.0, 250.0 ],
		"bglocked" : 0,
		"defrect" : [ 575.0, 294.0, 316.0, 250.0 ],
		"openrect" : [ 0.0, 0.0, 0.0, 0.0 ],
		"openinpresentation" : 0,
		"default_fontsize" : 12.0,
		"default_fontface" : 0,
		"default_fontname" : "Arial",
		"gridonopen" : 0,
		"gridsize" : [ 15.0, 15.0 ],
		"gridsnaponopen" : 0,
		"toolbarvisible" : 1,
		"boxanimatetime" : 200,
		"imprint" : 0,
		"enablehscroll" : 1,
		"enablevscroll" : 1,
		"devicewidth" : 0.0,
		"boxes" : [ 			{
				"box" : 				{
					"maxclass" : "comment",
					"text" : "argument pour le tps ",
					"fontsize" : 12.0,
					"numinlets" : 1,
					"id" : "obj-9",
					"fontname" : "Arial",
					"numoutlets" : 0,
					"patching_rect" : [ 172.0, 90.0, 124.0, 20.0 ]
				}

			}
, 			{
				"box" : 				{
					"maxclass" : "comment",
					"text" : "w pour banguer",
					"fontsize" : 12.0,
					"numinlets" : 1,
					"id" : "obj-7",
					"fontname" : "Arial",
					"numoutlets" : 0,
					"patching_rect" : [ 26.0, 21.0, 94.0, 20.0 ]
				}

			}
, 			{
				"box" : 				{
					"maxclass" : "newobj",
					"text" : "loadbang",
					"fontsize" : 12.0,
					"numinlets" : 1,
					"id" : "obj-6",
					"fontname" : "Arial",
					"numoutlets" : 1,
					"patching_rect" : [ 117.0, 120.0, 60.0, 20.0 ],
					"outlettype" : [ "bang" ]
				}

			}
, 			{
				"box" : 				{
					"maxclass" : "inlet",
					"numinlets" : 0,
					"id" : "obj-2",
					"numoutlets" : 1,
					"patching_rect" : [ 117.0, 42.0, 25.0, 25.0 ],
					"outlettype" : [ "" ],
					"comment" : ""
				}

			}
, 			{
				"box" : 				{
					"maxclass" : "outlet",
					"numinlets" : 1,
					"id" : "obj-5",
					"numoutlets" : 0,
					"patching_rect" : [ 117.0, 150.0, 25.0, 25.0 ],
					"comment" : ""
				}

			}
, 			{
				"box" : 				{
					"maxclass" : "newobj",
					"text" : "del #1",
					"fontsize" : 12.0,
					"numinlets" : 2,
					"id" : "obj-4",
					"fontname" : "Arial",
					"numoutlets" : 1,
					"patching_rect" : [ 117.0, 90.0, 50.0, 20.0 ],
					"outlettype" : [ "bang" ]
				}

			}
, 			{
				"box" : 				{
					"maxclass" : "newobj",
					"text" : "r lb",
					"fontsize" : 12.0,
					"numinlets" : 0,
					"id" : "obj-1",
					"fontname" : "Arial",
					"numoutlets" : 1,
					"patching_rect" : [ 63.0, 42.0, 27.0, 20.0 ],
					"outlettype" : [ "" ]
				}

			}
 ],
		"lines" : [ 			{
				"patchline" : 				{
					"source" : [ "obj-1", 0 ],
					"destination" : [ "obj-4", 0 ],
					"hidden" : 0,
					"midpoints" : [ 72.5, 77.5, 126.5, 77.5 ]
				}

			}
, 			{
				"patchline" : 				{
					"source" : [ "obj-2", 0 ],
					"destination" : [ "obj-4", 0 ],
					"hidden" : 0,
					"midpoints" : [  ]
				}

			}
, 			{
				"patchline" : 				{
					"source" : [ "obj-6", 0 ],
					"destination" : [ "obj-5", 0 ],
					"hidden" : 0,
					"midpoints" : [  ]
				}

			}
, 			{
				"patchline" : 				{
					"source" : [ "obj-4", 0 ],
					"destination" : [ "obj-6", 0 ],
					"hidden" : 0,
					"midpoints" : [  ]
				}

			}
 ]
	}

}
